<?xml version="1.0" encoding="UTF-8" standalone="no"?>
<!-- Generator: Adobe Illustrator 17.0.0, SVG Export Plug-In . SVG Version: 6.00 Build 0)  -->
<svg xmlns:i="&amp;ns_ai;" xmlns:dc="http://purl.org/dc/elements/1.1/" xmlns:cc="http://creativecommons.org/ns#" xmlns:rdf="http://www.w3.org/1999/02/22-rdf-syntax-ns#" xmlns:svg="http://www.w3.org/2000/svg" xmlns="http://www.w3.org/2000/svg" xmlns:xlink="http://www.w3.org/1999/xlink" xmlns:sodipodi="http://sodipodi.sourceforge.net/DTD/sodipodi-0.dtd" xmlns:inkscape="http://www.inkscape.org/namespaces/inkscape" version="1.1" id="Layer_1" x="0px" y="0px" width="319.44" height="79.538895" viewBox="0 0 319.44001 79.538895" enable-background="new 0 0 353.956 107.986" xml:space="preserve" inkscape:version="0.48.2 r9819" sodipodi:docname="Mumbai_MonoRail_Logo.svg"><title id="title3795">Mumbai Monorail logo</title><metadata id="metadata23"><rdf:RDF><cc:Work rdf:about=""><dc:format>image/svg+xml</dc:format><dc:type rdf:resource="http://purl.org/dc/dcmitype/StillImage"/><dc:title>Mumbai Monorail logo</dc:title><dc:creator><cc:Agent><dc:title>Mumbai Metropolitan Region Development Authority</dc:title></cc:Agent></dc:creator><dc:publisher><cc:Agent><dc:title>Mumbai Metropolitan Region Development Authority</dc:title></cc:Agent></dc:publisher><dc:date>2014-02</dc:date></cc:Work></rdf:RDF></metadata>
<sodipodi:namedview pagecolor="#ffffff" bordercolor="#666666" borderopacity="1" objecttolerance="10" gridtolerance="10" guidetolerance="10" inkscape:pageopacity="0" inkscape:pageshadow="2" inkscape:window-width="1024" inkscape:window-height="689" id="namedview19" showgrid="false" fit-margin-top="0" fit-margin-left="0" fit-margin-right="0" fit-margin-bottom="0" inkscape:zoom="1.6654145" inkscape:cx="159.72" inkscape:cy="39.769447" inkscape:window-x="0" inkscape:window-y="27" inkscape:window-maximized="1" inkscape:current-layer="Layer_1" inkscape:showpageshadow="false" showborder="true"/><g id="g3799"><path sodipodi:nodetypes="cccccccscccccccscccccc" style="fill:#123efd;fill-opacity:1" inkscape:connector-curvature="0" id="path3021" d="m 157.68099,36.730895 c 6.43,6.657 9.448,14.988 10.929,23.816 1.031,6.142 1.061,12.451 1.561,18.992 5.611,0 11.317,0 17.303,0 1.28,-18.571 -1.804,-35.728 -12.635,-51.007 -0.851,-1.2 -1.532,-2.521 -2.291,-3.786 -4.39364,-5.37878 -9.05719,-9.40303 -13.814,-12.966 C 147.88899,4.6168967 135.95199,0.14989675 123.003,0.00489675 99.154995,-0.26210325 80.682,10.399895 66.945,29.635895 c -0.958,1.341 -1.798,2.765 -2.621,4.039 -4.723,-5.31 -9.238,-10.681 -14.068,-15.751 C 41.957,9.2128947 31.29,4.6878967 19.814,2.2888967 c -4.032,-0.843 -5.12827,-1.06915 -9.39027,-0.96715 C 5.42234,1.1712967 5.07195,1.1956867 0.13697,1.2756467 0.13697,6.7116467 0,13.349925 0,19.756925 c 16.572,-1.436 31.094,2.801 42.314,15.874 10.869,12.664 13.417,27.618 12.327,43.89 6.378,0 12.26,0 18.866,0 0,-4.356 -0.019,-8.475 0.003,-12.594 0.11,-20.733 14.925,-42.735 38.46,-47.641 10.954,-2.283 22.14499,-1.413 31.89399,5.505 4.606,3.981 9.211,7.96 13.817,11.93999 z"/><path d="m 161.75901,36.730895 c -6.43,6.657 -9.448,14.988 -10.929,23.816 -1.031,6.142 -1.061,12.451 -1.561,18.992 -5.611,0 -11.317,0 -17.303,0 -1.28,-18.571 1.804,-35.728 12.635,-51.007 0.851,-1.2 1.532,-2.521 2.291,-3.786 4.39364,-5.378782 9.05719,-9.40303 13.814,-12.966 10.845,-7.1629983 22.782,-11.62999825 35.731,-11.77499825 23.848,-0.267 42.321,10.39499825 56.058,29.63099825 0.958,1.341 1.798,2.765 2.621,4.039 4.723,-5.31 9.238,-10.681 14.068,-15.751 8.299,-8.7110003 18.966,-13.2359983 30.442,-15.6349983 4.032,-0.843 5.12827,-1.06915 9.39027,-0.96715 5.00139,-0.15046 5.35178,-0.12607 10.28676,-0.0461 0,5.436 0.13697,12.0742703 0.13697,18.4812703 -16.572,-1.436 -31.094,2.801 -42.314,15.874 -10.869,12.664 -13.417,27.618 -12.327,43.89 -6.378,0 -12.26,0 -18.866,0 0,-4.356 0.019,-8.475 -0.003,-12.594 -0.11,-20.733 -14.925,-42.735 -38.46,-47.641 -10.954,-2.283 -22.145,-1.413 -31.894,5.505 -4.606,3.981 -9.211,7.96 -13.817,11.939998 z" id="path3019" inkscape:connector-curvature="0" style="fill:#8a2fe1" sodipodi:nodetypes="cccccccscccccccscccccc"/></g></svg>